<?xml version="1.0" encoding="UTF-8"?>
<svg version="1.1" xmlns="http://www.w3.org/2000/svg" width="500" height="500">
<path d="M0 0 C9.07985456 4.74547395 16.11091848 11.02498098 23.3046875 18.21875 C24.79708239 18.35210337 26.29523524 18.42218269 27.79296875 18.46484375 C29.18515625 18.5117334 29.18515625 18.5117334 30.60546875 18.55957031 C31.59933594 18.59147461 32.59320313 18.62337891 33.6171875 18.65625 C48.63325814 19.26591783 63.4396905 20.65280425 76.1171875 29.53125 C83.68605779 33.95768754 92.78852738 32.5194264 101.24609375 32.3125 C113.66681751 32.02226941 127.07159047 34.00402726 138.1171875 40.03125 C140.3046875 42.21875 140.3046875 42.21875 140.6484375 45.34765625 C140.24262501 49.91765829 138.92319506 53.23307396 136.9921875 57.34375 C136.68345703 58.03339844 136.37472656 58.72304687 136.05664062 59.43359375 C134.3633373 63.16242592 132.64673989 66.84671939 130.3046875 70.21875 C129.6446875 70.21875 128.9846875 70.21875 128.3046875 70.21875 C128.1190625 70.87875 127.9334375 71.53875 127.7421875 72.21875 C126.31583422 75.19548729 125.05583617 76.51027108 122.7421875 78.78125 C118.8079943 83.08705077 118.76344181 86.41102222 118.578125 92.0703125 C117.66583245 102.57470955 111.61866524 110.13549711 104.3046875 117.21875 C103.42554688 118.07210937 102.54640625 118.92546875 101.640625 119.8046875 C94.35652386 126.61607411 94.35652386 126.61607411 90.3046875 127.21875 C90.3046875 127.87875 90.3046875 128.53875 90.3046875 129.21875 C88.31239758 130.62248034 86.3422432 131.86709709 84.2421875 133.09375 C83.25798828 133.67552002 83.25798828 133.67552002 82.25390625 134.26904297 C72.47667895 139.96276133 62.39990218 145.11710368 52.3046875 150.21875 C51.52367676 150.61465332 50.74266602 151.01055664 49.93798828 151.41845703 C47.92207554 152.43119692 45.89811586 153.42403646 43.8671875 154.40625 C42.77535156 154.93605469 41.68351562 155.46585938 40.55859375 156.01171875 C31.85398071 159.24068085 31.85398071 159.24068085 27.11157227 157.33959961 C24.75963466 156.02586094 22.53663142 154.60202609 20.3046875 153.09375 C19.54929687 152.60648438 18.79390625 152.11921875 18.015625 151.6171875 C16.51149003 150.64544395 15.01391788 149.66345865 13.5234375 148.67089844 C10.64898267 146.78959812 7.70130516 145.03908594 4.73828125 143.30126953 C4.26519531 142.94403809 3.79210937 142.58680664 3.3046875 142.21875 C3.3046875 141.55875 3.3046875 140.89875 3.3046875 140.21875 C2.26248047 139.86296875 2.26248047 139.86296875 1.19921875 139.5 C-2.21729435 137.9876973 -5.05287921 135.96636633 -8.0078125 133.71875 C-8.83249023 133.11353516 -8.83249023 133.11353516 -9.67382812 132.49609375 C-11.05538701 131.45606309 -12.38087548 130.34241546 -13.6953125 129.21875 C-13.6953125 128.55875 -13.6953125 127.89875 -13.6953125 127.21875 C-14.53835937 126.8475 -14.53835937 126.8475 -15.3984375 126.46875 C-18.08623819 125.00600133 -20.15936732 123.25070127 -22.4453125 121.21875 C-23.24453125 120.5175 -24.04375 119.81625 -24.8671875 119.09375 C-26.6953125 117.21875 -26.6953125 117.21875 -26.6953125 115.21875 C-27.26378906 115.0021875 -27.83226562 114.785625 -28.41796875 114.5625 C-36.78925097 109.62301272 -42.71928063 97.14684561 -45.6953125 88.21875 C-46.86588158 76.89767474 -44.50390198 66.15565457 -37.6953125 56.90625 C-36.18389382 54.68163064 -35.62870155 53.78598386 -35.9453125 51.08984375 C-36.73414069 48.72746766 -37.68506697 46.49466162 -38.6953125 44.21875 C-44.08610451 29.02651796 -46.91724508 8.88454774 -41.6953125 -6.78125 C-33.36757731 -16.75107382 -9.5113658 -4.6972218 0 0 Z M-12.6953125 55.21875 C-15.15257177 71.81032706 -16.95054865 89.57938421 -6.9453125 104.09375 C-1.31158678 111.32679346 4.31193624 114.99573954 13.3671875 116.84375 C20.66459856 117.53874153 28.12777549 117.89958813 35.3046875 116.21875 C28.47184676 93.19350022 7.12203819 67.98993156 -12.6953125 55.21875 Z M93.3046875 87.21875 C85.58583204 90.701444 79.03384083 95.10939287 72.3046875 100.21875 C71.48871094 100.80527344 70.67273438 101.39179688 69.83203125 101.99609375 C69.10113281 102.52332031 68.37023437 103.05054688 67.6171875 103.59375 C66.97394531 104.05523437 66.33070313 104.51671875 65.66796875 104.9921875 C64.99314453 105.59933594 64.99314453 105.59933594 64.3046875 106.21875 C64.3046875 106.87875 64.3046875 107.53875 64.3046875 108.21875 C63.41523438 108.58613281 63.41523438 108.58613281 62.5078125 108.9609375 C59.93770024 110.42827109 58.75938784 111.94167225 57.0546875 114.34375 C56.53390625 115.06820312 56.013125 115.79265625 55.4765625 116.5390625 C55.08984375 117.09335937 54.703125 117.64765625 54.3046875 118.21875 C64.365491 121.11762558 74.4862312 120.826485 84.14453125 116.5234375 C88.98266546 113.60130942 92.00612936 109.30405563 94.3046875 104.21875 C95.37847867 99.49406887 95.54167332 95.03746167 95.3046875 90.21875 C94.6446875 89.22875 93.9846875 88.23875 93.3046875 87.21875 Z " fill="#F1F0F0" transform="translate(212.6953125,175.78125)"/>
<path d="M0 0 C0.66 0.33 1.32 0.66 2 1 C1.84402344 1.99515625 1.68804687 2.9903125 1.52734375 4.015625 C-0.12245582 15.5016242 0.11610282 26.44961386 1 38 C-1.71738752 33.92391872 -2.14598937 31.03429909 -2.31640625 26.23828125 C-2.35830078 25.12001953 -2.40019531 24.00175781 -2.44335938 22.84960938 C-2.48267578 21.68236328 -2.52199219 20.51511719 -2.5625 19.3125 C-2.60568359 18.13365234 -2.64886719 16.95480469 -2.69335938 15.74023438 C-2.79951176 12.82694117 -2.90156242 9.91356243 -3 7 C-2.34 7 -1.68 7 -1 7 C-0.67 4.69 -0.34 2.38 0 0 Z " fill="#878486" transform="translate(199,230)"/>
<path d="M0 0 C1.2039337 3.75399798 1.09877617 7.33217412 1.0625 11.25 C1.05347656 12.51328125 1.04445312 13.7765625 1.03515625 15.078125 C1.02355469 16.04234375 1.01195312 17.0065625 1 18 C2.32 18 3.64 18 5 18 C4.67 19.32 4.34 20.64 4 22 C4.99 22.66 5.98 23.32 7 24 C7.70052461 26.663063 7.77744818 29.24035737 8 32 C5.33434931 29.63053272 3.92561586 27.19636154 2.375 24 C1.73691406 22.700625 1.73691406 22.700625 1.0859375 21.375 C-0.81556116 17.21632668 -1.13523856 14.04592049 -1.125 9.5 C-1.12757813 8.3553125 -1.13015625 7.210625 -1.1328125 6.03125 C-1 3 -1 3 0 0 Z " fill="#A7A4A5" transform="translate(168,248)"/>
<path d="M0 0 C1.32 0.33 2.64 0.66 4 1 C4 1.66 4 2.32 4 3 C4.66 3 5.32 3 6 3 C6.33 3.99 6.66 4.98 7 6 C10.51190809 7.22969878 10.51190809 7.22969878 14 8 C14 8.66 14 9.32 14 10 C13.34 10 12.68 10 12 10 C12 11.65 12 13.3 12 15 C12.66 15 13.32 15 14 15 C14.33 16.65 14.66 18.3 15 20 C11.92571195 17.07701919 9.41438927 14.00341939 6.9375 10.5625 C6.26589844 9.63566406 5.59429687 8.70882813 4.90234375 7.75390625 C3.15425 5.22329826 1.54774501 2.65672118 0 0 Z " fill="#C8C6C7" transform="translate(224,253)"/>
<path d="M0 0 C2.31 0.33 4.62 0.66 7 1 C1.85714286 6.57142857 1.85714286 6.57142857 -2 7 C-2 7.66 -2 8.32 -2 9 C-3.65 9.66 -5.3 10.32 -7 11 C-7.33 10.34 -7.66 9.68 -8 9 C-6.1875 6 -6.1875 6 -4 3 C-3.01 3 -2.02 3 -1 3 C-0.67 2.01 -0.34 1.02 0 0 Z " fill="#CFCCCE" transform="translate(305,296)"/>
<path d="M0 0 C1.65 0.33 3.3 0.66 5 1 C3.625 3 3.625 3 2 5 C1.34 5 0.68 5 0 5 C0 5.66 0 6.32 0 7 C-0.99 7.33 -1.98 7.66 -3 8 C-3 6.35 -3 4.7 -3 3 C-2.34 3 -1.68 3 -1 3 C-0.67 2.01 -0.34 1.02 0 0 Z " fill="#D1C4CE" transform="translate(277,277)"/>
<path d="M0 0 C0.66 0.99 1.32 1.98 2 3 C1.34 4.32 0.68 5.64 0 7 C-0.66 7 -1.32 7 -2 7 C-2.33 8.65 -2.66 10.3 -3 12 C-2.01 11.67 -1.02 11.34 0 11 C0 11.99 0 12.98 0 14 C-1.32 13.67 -2.64 13.34 -4 13 C-4.33 13.66 -4.66 14.32 -5 15 C-4.43174347 9.45949887 -2.37113483 4.96284034 0 0 Z " fill="#BFBCBC" transform="translate(174,233)"/>
<path d="M0 0 C-0.33 4.62 -0.66 9.24 -1 14 C-1.33 14 -1.66 14 -2 14 C-2.66 10.7 -3.32 7.4 -4 4 C-5.65 4.33 -7.3 4.66 -9 5 C-2.40909091 0 -2.40909091 0 0 0 Z " fill="#9F9A9C" transform="translate(310,260)"/>
<path d="M0 0 C4.30764815 1.56641751 8.06171464 3.68336156 12 6 C8.78043217 7.07318928 8.09578311 6.870689 5 6 C4.01 6 3.02 6 2 6 C1.34 4.02 0.68 2.04 0 0 Z " fill="#A9A6A9" transform="translate(211,176)"/>
<path d="M0 0 C1.5 1.375 1.5 1.375 3 3 C3 3.66 3 4.32 3 5 C4.32 5 5.64 5 7 5 C7.92091738 7.57856865 8.18506902 8.5943287 7.0234375 11.140625 C6.51683594 12.06101562 6.51683594 12.06101562 6 13 C4.99491199 11.21118264 3.99607264 9.41885304 3 7.625 C2.1646875 6.12839844 2.1646875 6.12839844 1.3125 4.6015625 C0 2 0 2 0 0 Z " fill="#A29EA2" transform="translate(239,273)"/>
<path d="M0 0 C0.66 0.33 1.32 0.66 2 1 C1.01 5.95 0.02 10.9 -1 16 C-1.33 16 -1.66 16 -2 16 C-2.33 13.03 -2.66 10.06 -3 7 C-2.34 7 -1.68 7 -1 7 C-0.67 4.69 -0.34 2.38 0 0 Z " fill="#B0ADAD" transform="translate(199,230)"/>
<path d="M0 0 C0.33 0 0.66 0 1 0 C1.17835515 4.54805635 0.99785435 7.8794254 -1 12 C-2.5625 10.1875 -2.5625 10.1875 -4 8 C-3.67 7.01 -3.34 6.02 -3 5 C-2.34 4.67 -1.68 4.34 -1 4 C-0.34786708 1.97536745 -0.34786708 1.97536745 0 0 Z " fill="#AEABAC" transform="translate(352,218)"/>
<path d="M0 0 C1.32 0 2.64 0 4 0 C3.35550393 3.01217112 2.34977818 5.51655836 0.9375 8.25 C0.57527344 8.95640625 0.21304687 9.6628125 -0.16015625 10.390625 C-0.43730469 10.92171875 -0.71445312 11.4528125 -1 12 C-2.24546405 9.50907189 -1.7767578 8.58919267 -1 6 C-0.34 6 0.32 6 1 6 C0.67 4.02 0.34 2.04 0 0 Z " fill="#ACA3AA" transform="translate(346,230)"/>
<path d="M0 0 C1.32 0.33 2.64 0.66 4 1 C4 1.66 4 2.32 4 3 C4.66 3 5.32 3 6 3 C6.33 4.98 6.66 6.96 7 9 C4.03595495 6.19195732 1.55500981 3.81684226 0 0 Z " fill="#9C989B" transform="translate(224,253)"/>
<path d="M0 0 C4.2295083 1.4098361 5.08210924 4.16421847 7 8 C3.18315774 6.44499019 0.80804268 3.96404505 -2 1 C-1.34 0.67 -0.68 0.34 0 0 Z " fill="#A4A2A3" transform="translate(203,304)"/>
<path d="M0 0 C2.375 -0.1875 2.375 -0.1875 5 0 C5.66 0.99 6.32 1.98 7 3 C7.99 3 8.98 3 10 3 C10 3.99 10 4.98 10 6 C6.40992874 4.66654496 3.20429093 3.1056769 0 1 C0 0.67 0 0.34 0 0 Z " fill="#979596" transform="translate(232,327)"/>
<path d="M0 0 C2.02045442 0.60183749 4.02111039 1.27306096 6 2 C6.33 2.66 6.66 3.32 7 4 C5.824375 3.9690625 5.824375 3.9690625 4.625 3.9375 C2.01885039 3.81315937 2.01885039 3.81315937 0 5 C-0.33 4.01 -0.66 3.02 -1 2 C-0.67 1.34 -0.34 0.68 0 0 Z " fill="#BBBAB9" transform="translate(345,214)"/>
<path d="M0 0 C-4.75 4 -4.75 4 -7 4 C-7.33 3.01 -7.66 2.02 -8 1 C-5.29120665 -0.35439668 -2.99066732 -0.06501451 0 0 Z " fill="#B6B3B5" transform="translate(300,266)"/>
</svg>
